HIERARCHY
ROOT hip
{
	OFFSET 0.000000 0.000000 0.000000 
	CHANNELS 6 Xposition Yposition Zposition Xrotation Zrotation Yrotation
	JOINT abdomen
	{
		OFFSET 0.000000 3.402643 0.000000 
		CHANNELS 3 Xrotation Zrotation Yrotation
		JOINT chest
		{
			OFFSET 0.000000 8.438565 -0.680529 
			CHANNELS 3 Xrotation Zrotation Yrotation
			JOINT neck
			{
				OFFSET 0.000000 10.207942 -0.272212 
				CHANNELS 3 Xrotation Zrotation Yrotation
				JOINT head
				{
					OFFSET 0.000000 3.130431 0.000000 
					CHANNELS 3 Xrotation Zrotation Yrotation
					End Site
					{
						OFFSET 0.000000 3.130435 0.000000 
					}
				}
			}
			JOINT lCollar
			{
				OFFSET 3.470700 6.669187 -0.816635 
				CHANNELS 3 Yrotation Zrotation Xrotation
				JOINT lShldr
				{
					OFFSET 3.198488 0.000000 0.000000 
					CHANNELS 3 Zrotation Yrotation Xrotation
					JOINT lForeArm
					{
						OFFSET 10.139888 0.000000 0.000000 
						CHANNELS 3 Yrotation Zrotation Xrotation
						JOINT lHand
						{
							OFFSET 8.370511 0.000000 0.000000 
							CHANNELS 3 Zrotation Yrotation Xrotation
							End Site
							{
								OFFSET 4.083176 0.000000 0.000000 
							}
						}
					}
				}
			}
			JOINT rCollar
			{
				OFFSET -3.470700 6.669187 -0.816635 
				CHANNELS 3 Yrotation Zrotation Xrotation
				JOINT rShldr
				{
					OFFSET -3.198488 0.000000 0.000000 
					CHANNELS 3 Zrotation Yrotation Xrotation
					JOINT rForeArm
					{
						OFFSET -10.139888 0.000000 0.000000 
						CHANNELS 3 Yrotation Zrotation Xrotation
						JOINT rHand
						{
							OFFSET -8.370511 0.000000 0.000000 
							CHANNELS 3 Zrotation Yrotation Xrotation
							End Site
							{
								OFFSET -4.083176 0.000000 0.000000 
							}
						}
					}
				}
			}
		}
	}
	JOINT lThigh
	{
		OFFSET 5.308129 -1.633274 1.361059 
		CHANNELS 3 Xrotation Zrotation Yrotation
		JOINT lShin
		{
			OFFSET -2.041588 -20.007561 0.000000 
			CHANNELS 3 Xrotation Zrotation Yrotation
			JOINT lFoot
			{
				OFFSET 0.000000 -19.190928 -1.224953 
				CHANNELS 3 Xrotation Yrotation Zrotation
				End Site
				{
					OFFSET 0.000000 -2.449906 4.627600 
				}
			}
		}
	}
	JOINT rThigh
	{
		OFFSET -5.308129 -1.633274 1.361059 
		CHANNELS 3 Xrotation Zrotation Yrotation
		JOINT rShin
		{
			OFFSET 2.041588 -20.007561 0.000000 
			CHANNELS 3 Xrotation Zrotation Yrotation
			JOINT rFoot
			{
				OFFSET 0.000000 -19.190928 -1.224953 
				CHANNELS 3 Xrotation Yrotation Zrotation
				End Site
				{
					OFFSET 0.000000 -2.449906 4.627600 
				}
			}
		}
	}
}
MOTION
Frames: 14
Frame Time: 0.033333
20.737730 44.925041 -11.454279 -0.671527 13.006950 102.116158 38.953568 4.732590 -5.852731 -20.839844 0.000000 0.000000 -9.677339 1.915251 -0.428843 -2.520860 -1.255023 0.218345 -4.754609 -0.109182 -0.002653 -26.930796 -3.432968 -1.167035 -1.514708 -3.864469 36.897511 1.238555 -4.746027 5.638677 4.754609 0.109182 -0.002672 46.097736 -17.685131 -20.291157 52.570175 0.567866 21.154888 8.131125 -3.940122 29.823481 -10.711702 10.115951 2.378392 57.642376 -0.843430 -11.712942 -27.915558 -12.321975 3.566880 -9.003083 -16.022137 -13.873402 59.223312 11.503218 10.232086 -26.001575 17.694916 -1.872231 
20.324484 44.770706 -11.289284 -0.279170 11.630725 104.944870 39.886787 5.139962 -6.000867 -20.839844 0.000000 0.000000 -11.739205 1.419137 -2.216510 -2.520860 -1.255023 0.218345 -4.754609 -0.109182 -0.002653 -37.927738 -6.023677 1.345024 -1.987586 -4.324378 34.971764 -1.538217 -5.214346 4.265443 4.754609 0.109182 -0.002672 55.459194 -17.160629 -18.490253 52.118622 1.600556 20.333801 8.333401 -4.226467 27.345707 -13.808505 9.892539 1.923903 58.507374 -0.650782 -12.651156 -27.438957 -13.619006 3.934349 -11.453832 -16.276300 -13.477694 57.402592 11.251270 11.551091 -25.362175 20.037199 -2.154639 
19.884321 44.530586 -11.080628 0.059462 9.804683 107.999924 40.553543 5.508644 -5.836345 -20.839844 0.000000 0.000000 -14.166584 0.677283 -4.387868 -2.520860 -1.255023 0.218345 -4.754609 -0.109182 -0.002653 -49.326195 -7.935412 4.724662 -2.597075 -4.380345 34.800777 -3.660803 -5.844494 4.793375 4.754609 0.109182 -0.002672 64.531906 -16.811831 -16.536768 51.342083 2.664884 20.711617 9.811103 -4.407425 26.454388 -17.776249 10.396151 2.281289 59.962837 -1.137975 -14.383026 -27.048368 -16.400480 3.272470 -13.299177 -17.261734 -14.183815 56.668568 11.855207 11.194757 -25.325718 20.751131 -4.152262 
19.400518 44.192970 -10.850141 0.305388 7.558488 111.027435 41.012291 5.742156 -5.283823 -20.839844 0.000000 0.000000 -17.004759 -0.358448 -6.911143 -2.520860 -1.255023 0.218345 -4.754609 -0.109182 -0.002653 -60.200100 -8.589104 8.721652 -4.193141 -3.881529 36.283737 -4.151221 -7.079803 6.475974 4.754609 0.109182 -0.002672 72.125885 -15.698840 -14.264385 49.427834 3.636626 23.169100 11.271495 -3.081167 28.625607 -22.638721 11.197031 2.908118 62.044884 -1.948567 -16.509142 -26.971947 -19.285856 0.020585 -15.426320 -19.523275 -15.955035 58.122070 13.183203 10.435953 -27.394394 20.637224 -5.440135 
18.875078 43.737587 -10.620161 0.500002 5.068168 113.853455 41.324665 5.810958 -4.369667 -20.839844 0.000000 0.000000 -20.079641 -1.698464 -9.740397 -2.520860 -1.255023 0.218345 -4.754609 -0.109182 -0.002653 -69.294853 -7.954256 12.215552 -7.199449 -3.504992 37.236298 -3.183230 -8.127825 6.884176 4.754609 0.109182 -0.002672 77.524467 -13.211490 -11.517525 46.485165 4.340807 26.608171 10.744117 -0.070929 32.427776 -27.863798 11.373685 3.035329 64.652191 -2.418059 -17.752430 -27.175213 -19.991869 -5.369065 -18.318914 -22.525324 -17.716278 60.626411 14.471476 10.054475 -27.899939 20.037115 -5.236549 
18.332369 43.171516 -10.403889 0.664766 2.636541 116.505608 41.540077 5.791226 -3.245613 -20.839844 0.000000 0.000000 -22.947205 -3.278821 -12.834275 -2.520860 -1.255023 0.218345 -4.754609 -0.109182 -0.002653 -75.749428 -6.394371 14.244136 -11.459805 -3.962612 36.022984 -1.487166 -7.815498 4.736785 4.754609 0.109182 -0.002672 80.849266 -9.925547 -8.499309 44.194328 5.011827 28.697577 7.966924 2.718275 34.107620 -32.607697 10.924014 2.417630 67.981781 -1.960747 -17.259531 -27.029209 -17.424583 -11.013792 -21.872599 -25.453117 -18.690767 63.805962 15.195108 9.927137 -28.670391 19.173544 -5.666160 
17.797777 42.545040 -10.214017 0.830124 0.605405 119.178795 41.672962 5.816869 -2.135286 -20.839844 0.000000 0.000000 -25.068911 -4.950369 -16.208305 -2.520860 -1.255023 0.218345 -4.754609 -0.109182 -0.002653 -79.181946 -4.378255 13.980250 -16.389132 -5.747150 32.447639 0.569438 -6.076534 1.530748 4.754609 0.109182 -0.002672 82.524017 -6.982373 -5.782842 43.788944 5.947256 28.529278 4.450422 4.024598 32.280693 -35.679577 10.145360 1.171898 72.616219 -0.329108 -14.747352 -29.537273 -12.682825 -11.028749 -25.504196 -28.126406 -18.941441 67.180923 15.341097 9.879008 -29.325415 17.935249 -5.923348 
17.274355 41.924656 -10.062729 0.976644 -0.742080 122.086830 41.736317 6.019076 -1.229532 -20.839844 0.000000 0.000000 -26.038610 -6.475037 -19.941755 -2.520860 -1.255023 0.218345 -4.754609 -0.109182 -0.002653 -79.706627 -2.349395 11.224824 -20.823038 -9.364346 28.341961 3.064926 -4.504195 0.726178 4.754609 0.109182 -0.002672 82.852829 -4.916569 -3.927302 44.959343 6.968235 26.964491 1.718846 4.034582 28.804411 -36.566277 9.695310 -0.504855 77.340950 2.432920 -11.219745 -31.127613 -7.640298 -7.534275 -28.387930 -30.408384 -18.848135 70.160004 15.068090 9.759970 -29.858070 16.294142 -5.196489 
16.747393 41.332695 -9.963731 1.074499 -1.308364 125.365868 41.702236 6.399539 -0.653531 -20.839844 0.000000 0.000000 -25.755722 -7.585057 -24.080853 -2.520860 -1.255023 0.218345 -4.754609 -0.109182 -0.002653 -77.917450 -0.746715 10.743745 -24.316696 -13.389573 27.773373 5.604215 -3.576797 -0.668725 4.754609 0.109182 -0.002672 82.221779 -4.036514 -3.212054 47.137844 7.823653 25.172144 0.333355 3.358869 25.800564 -35.337227 10.233199 -2.319884 81.010216 5.771690 -7.447016 -30.929344 -3.207793 -2.969360 -30.183975 -32.008068 -18.549595 72.608261 14.549570 9.390382 -31.194281 14.310486 -4.008949 
16.205193 40.748856 -9.912963 1.123286 -1.181414 128.921951 41.524513 6.839894 -0.475239 -20.839844 0.000000 0.000000 -24.449718 -8.064648 -28.504339 -2.520860 -1.255023 0.218345 -4.754609 -0.109182 -0.002653 -74.923813 0.165296 12.596427 -26.533415 -17.206841 30.568573 7.720405 -2.370761 -1.669625 4.754609 0.109182 -0.002672 81.093948 -4.717854 -3.602117 50.134499 8.522481 23.740103 0.035079 2.479899 23.971029 -32.634838 12.050047 -3.751570 82.884933 9.120757 -3.509116 -29.122086 1.458310 1.346615 -31.276287 -32.913551 -17.992348 74.786690 13.719707 8.797873 -32.681610 11.862080 -2.422158 
15.627457 40.150818 -9.878441 1.093819 -0.644414 132.565704 41.181061 7.190633 -0.686368 -20.839844 0.000000 0.000000 -22.585487 -7.857239 -32.911480 -2.520860 -1.255023 0.218345 -4.754609 -0.109182 -0.002653 -71.820534 0.434491 14.955454 -27.222425 -20.762987 34.916843 9.946082 -0.972147 -1.063513 4.754609 0.109182 -0.002672 79.921837 -6.863256 -4.763890 53.626129 9.153031 22.662809 0.221699 1.598864 23.022314 -29.311712 15.281066 -4.295732 82.196266 11.836603 0.010124 -25.253704 6.667616 3.154749 -32.212963 -33.322552 -17.202700 76.925591 12.674943 8.009798 -33.639595 9.041174 -0.653527 
15.011126 39.479664 -9.831225 0.927734 0.009764 136.064606 40.710918 7.327319 -1.199683 -20.839844 0.000000 0.000000 -20.760403 -7.091969 -37.029110 -2.520860 -1.255023 0.218345 -4.754609 -0.109182 -0.002653 -69.144295 0.320768 17.190065 -27.115049 -23.685402 39.626984 12.789455 -0.111778 0.596541 4.754609 0.109182 -0.002672 78.970680 -9.809553 -6.291744 56.973690 9.640690 21.796637 0.495330 0.929496 22.510754 -26.108797 19.958010 -3.503314 78.698776 13.291891 1.297870 -21.642986 10.585313 0.691113 -33.550598 -33.518147 -16.139959 79.311859 11.503425 7.226343 -33.676849 6.159072 1.373109 
14.378572 38.621174 -9.781981 0.546903 0.576146 139.243881 40.305614 7.216399 -1.800292 -20.839844 0.000000 0.000000 -19.537870 -6.076847 -40.812611 -2.520860 -1.255023 0.218345 -4.754609 -0.109182 -0.002653 -66.828308 -0.033763 18.947247 -27.046246 -26.137541 44.176353 16.198351 -0.290427 3.241363 4.754609 0.109182 -0.002672 78.283638 -12.499662 -7.776805 59.349220 9.802656 20.798157 0.395502 0.818783 21.752989 -23.700583 25.653688 -1.364713 73.837296 13.224806 -0.276618 -23.103867 11.236154 -4.753304 -35.671734 -33.834549 -14.901769 82.391678 10.273396 6.935170 -32.934158 3.959656 3.515603 
13.791171 37.538799 -9.734260 -0.009767 0.986328 141.982254 40.178570 6.927765 -2.252715 -20.839844 0.000000 0.000000 -19.276091 -5.191972 -44.391529 -2.520860 -1.255023 0.218345 -4.754609 -0.109182 -0.002653 -64.924767 -0.891305 20.473469 -27.028521 -28.194151 48.328411 19.412006 -1.234542 6.149596 4.754609 0.109182 -0.002672 77.807182 -13.885491 -8.818468 60.339886 9.549901 18.786043 -0.988507 0.896629 19.361216 -23.031332 31.545109 1.340465 71.230301 12.463584 -3.242459 -33.489208 10.215084 -11.188004 -38.690510 -34.881512 -13.596102 86.664986 8.964582 8.191959 -32.418400 3.727762 6.571616 
